<svg width="217.031586" height="102.027466" viewBox="0 0 217.032 102.027" fill="none" xmlns="http://www.w3.org/2000/svg" xmlns:xlink="http://www.w3.org/1999/xlink">
	<desc>
			Created with Pixso.
	</desc>
	<defs/>
	<path id="LABELS" d="M184.98 16.4Q181.94 19.16 181.94 25.26C181.94 27.44 182.8 29.36 184.53 31.03C186.26 32.69 188.36 34.06 190.83 35.14C193.31 36.2 195.8 37.24 198.3 38.26C200.8 39.28 202.91 40.52 204.63 41.98C206.36 43.43 207.22 45.09 207.22 46.96C207.22 50.97 206.23 53.77 204.24 55.35C202.26 56.93 199.22 57.71 195.13 57.71C191.46 57.71 188.59 57.04 186.52 55.7C184.46 54.35 183 51.95 182.14 48.5L180.35 49.26Q181.59 54.17 184.74 56.71Q185 56.91 185.27 57.1C187.66 58.79 190.95 59.64 195.13 59.64C200.25 59.64 203.87 58.59 205.97 56.51C208.09 54.42 209.14 51.23 209.14 46.96C209.14 44.79 208.28 42.87 206.55 41.21C204.83 39.55 202.72 38.18 200.22 37.12C197.72 36.05 195.23 35 192.75 33.98C190.28 32.95 188.18 31.71 186.46 30.26C184.73 28.81 183.86 27.15 183.86 25.26Q183.86 22.07 184.75 20.03C185.36 18.65 186.24 17.66 187.41 17.04C188.59 16.43 189.76 16.02 190.94 15.81Q192.71 15.48 195.25 15.48C197.73 15.48 199.81 16.06 201.5 17.21C203.19 18.36 204.48 20.36 205.38 23.21L198.46 28.4L201.6 28.4L207.55 23.92Q206.21 18.68 203.19 16.12C201.19 14.41 198.54 13.56 195.25 13.56C190.56 13.56 187.17 14.47 185.08 16.31Q185.03 16.35 184.98 16.4ZM65.09 57.07L41.53 57.07L41.53 59L67.84 59L51.51 14.14L35.2 59L37.25 59L51.51 19.76L65.09 57.07ZM33.09 59L33.09 57.07L8.25 57.07L8.25 14.2L6.34 14.2L6.34 59L33.09 59ZM75.33 59L85.57 59C91.28 59 95.55 57.88 98.36 55.64Q100.1 54.25 101.12 52.46Q102.58 49.9 102.58 46.51C102.58 41.09 99.98 37.41 94.78 35.45Q97.28 34.05 98.62 31.92Q100.16 29.46 100.16 26.04C100.16 22.28 98.73 19.37 95.86 17.31Q91.58 14.2 83.13 14.2L75.33 14.2L75.33 59ZM116.34 35.57L135.36 35.57L135.36 33.65L121.01 33.65L140.61 14.2L112.39 14.2L112.39 59L139.14 59L139.14 57.07L114.29 57.07L114.29 16.12L135.93 16.12L116.34 35.57ZM176 59L176 57.07L151.16 57.07L151.16 14.2L149.25 14.2L149.25 59L176 59ZM91.07 56.6C89.4 56.92 87.57 57.07 85.57 57.07L77.24 57.07L77.24 16.12L83.13 16.12C93.2 16.12 98.24 19.43 98.24 26.04C98.24 29.58 96.76 32.16 93.82 33.78L90.24 35.82L94.08 37.23Q97.51 38.5 99.16 40.96Q100.68 43.23 100.68 46.51C100.68 48.52 100.25 50.25 99.39 51.7Q98.79 52.73 97.96 53.52Q97.03 54.4 95.83 55C94.32 55.75 92.73 56.28 91.07 56.6Z" fill="#FFFFFF" fill-opacity="1.000000" fill-rule="evenodd"/>
	<path id="path" d="M198.8 66.71L193.77 94.14C193.77 94.14 196.12 94.97 197.95 93.63C199.79 92.28 202.2 71.73 202.2 71.73C202.2 71.73 202.29 69.65 198.8 66.71Z" fill="#FFFFFF" fill-opacity="0.300000" fill-rule="nonzero"/>
	<path id="path" d="M179.79 88.3L182.8 68.88C182.88 68.36 183.05 67.89 183.32 67.45C183.59 67.01 183.93 66.63 184.35 66.33C184.42 66.28 184.49 66.23 184.56 66.19L193.06 60.79C193.28 60.64 193.52 60.55 193.78 60.49C194.04 60.44 194.3 60.43 194.56 60.47C194.83 60.51 195.07 60.6 195.3 60.73C195.54 60.86 195.74 61.02 195.91 61.23L198.21 63.97C198.45 63.41 198.62 62.83 198.71 62.23C198.95 60.73 198.69 59.26 198 58.08C197.35 56.96 196.37 56.25 195.24 56.07C192.86 55.7 190.54 57.86 190.07 60.89C190.04 61 190 61.11 189.93 61.21C189.87 61.31 189.79 61.39 189.69 61.46C189.59 61.53 189.48 61.57 189.37 61.6C189.25 61.63 189.14 61.63 189.02 61.61C188.9 61.59 188.79 61.56 188.69 61.5C188.59 61.44 188.5 61.36 188.43 61.26C188.36 61.17 188.3 61.07 188.27 60.95C188.24 60.84 188.23 60.72 188.24 60.61C188.88 56.57 192.15 53.72 195.54 54.24C197.23 54.5 198.67 55.53 199.62 57.14C200.52 58.68 200.86 60.59 200.56 62.51C200.4 63.58 200.05 64.58 199.51 65.51L202.39 68.95C202.75 69.38 203 69.87 203.15 70.41C203.31 70.95 203.34 71.5 203.25 72.05L200.23 91.48C200.14 92.09 199.93 92.66 199.61 93.19C199.29 93.71 198.88 94.16 198.38 94.52C197.88 94.89 197.33 95.14 196.74 95.29C196.14 95.43 195.53 95.46 194.92 95.37L183.66 93.62C183.36 93.57 183.07 93.5 182.78 93.39C182.49 93.29 182.22 93.15 181.96 92.99C181.7 92.84 181.45 92.65 181.23 92.45C181 92.24 180.8 92.01 180.62 91.76C180.44 91.52 180.29 91.25 180.16 90.98C180.03 90.7 179.93 90.41 179.86 90.11C179.79 89.82 179.75 89.51 179.73 89.21C179.72 88.9 179.74 88.6 179.79 88.3ZM183.95 91.77L195.22 93.52C195.59 93.58 195.95 93.56 196.31 93.48C196.67 93.39 197 93.24 197.3 93.02C197.6 92.8 197.85 92.53 198.04 92.21C198.23 91.9 198.36 91.55 198.41 91.19L201.43 71.76C201.47 71.47 201.46 71.18 201.38 70.9C201.3 70.62 201.17 70.36 200.98 70.14L198.37 67.03C198.26 67.14 198.15 67.25 198.03 67.35C197.86 67.51 197.68 67.66 197.5 67.79C196.22 68.72 194.75 69.11 193.28 68.88C193.16 68.86 193.05 68.82 192.94 68.76C192.84 68.69 192.75 68.61 192.67 68.51C192.6 68.41 192.55 68.3 192.52 68.18C192.49 68.06 192.49 67.94 192.51 67.82C192.52 67.7 192.57 67.59 192.63 67.48C192.69 67.37 192.78 67.28 192.87 67.21C192.97 67.14 193.08 67.09 193.2 67.06C193.32 67.03 193.44 67.02 193.57 67.04C194.69 67.22 195.83 66.84 196.81 65.97C196.94 65.85 197.06 65.72 197.18 65.6L194.51 62.42C194.45 62.36 194.39 62.32 194.3 62.3C194.22 62.29 194.14 62.31 194.07 62.35L185.56 67.75C185.53 67.78 185.48 67.8 185.45 67.82C184.99 68.16 184.71 68.6 184.62 69.16L181.61 88.58C181.59 88.76 181.58 88.94 181.58 89.13C181.59 89.31 181.62 89.49 181.66 89.67C181.7 89.85 181.76 90.02 181.84 90.19C181.92 90.35 182.01 90.51 182.12 90.66C182.23 90.81 182.35 90.94 182.49 91.07C182.62 91.19 182.77 91.3 182.92 91.4C183.08 91.49 183.25 91.57 183.42 91.64C183.59 91.7 183.77 91.75 183.95 91.77Z" fill="#FFFFFF" fill-opacity="1.000000" fill-rule="nonzero"/>
</svg>
