<?xml version="1.0" encoding="iso-8859-1"?>
<!-- Uploaded to: SVG Repo, www.svgrepo.com, Generator: SVG Repo Mixer Tools -->
<svg fill="#000000"  height="100%" width="100%"  preserveAspectRatio="xMidYMid meet"  version="1.1" id="Layer_1" xmlns="http://www.w3.org/2000/svg" xmlns:xlink="http://www.w3.org/1999/xlink"
	 viewBox="0 0 512 512" xml:space="preserve">
<g>
	<g>
		<g>
			<path d="M327.635,193.427c39.192,0,71.079-31.885,71.079-71.078c0-39.192-31.886-71.077-71.079-71.077h-63.55V8.085
				c0-4.465-3.619-8.085-8.085-8.085c-4.466,0-8.085,3.62-8.085,8.085v43.188h-63.55c-39.191,0-71.076,31.885-71.076,71.077
				s31.884,71.078,71.076,71.078h32.615v29.709h-44.618c-15.832,0-28.711,12.879-28.711,28.709v75.621v46.952
				c0,12.824,8.453,23.709,20.079,27.381v75.667c0,19.042,15.492,34.534,34.535,34.534h1.468c19.042,0,34.534-15.492,34.534-34.534
				v-74.339h43.467v74.339c0,19.042,15.492,34.534,34.535,34.534h1.468c19.041,0,34.531-15.492,34.531-34.534V401.8
				c11.627-3.672,20.081-14.558,20.081-27.383v-46.951v-75.621c0-15.831-12.878-28.709-28.708-28.709h-44.623v-29.709H327.635z
				 M218.098,477.466h-0.001c0,10.126-8.238,18.363-18.363,18.363h-1.468c-10.127,0-18.364-8.238-18.364-18.363v-74.339h38.197
				V477.466z M332.101,477.466H332.1c0,10.126-8.237,18.363-18.361,18.363h-1.468c-10.127,0-18.364-8.238-18.364-18.363v-74.339
				h38.195V477.466z M339.644,239.307c6.912,0,12.536,5.625,12.536,12.539v67.535h-31.601c-4.466,0-8.085,3.62-8.085,8.085
				c0,4.465,3.619,8.085,8.085,8.085h31.601v38.866c0,6.77-5.396,12.29-12.112,12.517c-0.046,0-0.092-0.004-0.137-0.002
				c-0.152,0.004-0.302,0.013-0.472,0.024h-53.638h-59.638h-53.641c-0.157-0.011-0.313-0.019-0.471-0.024
				c-0.045-0.001-0.089,0.003-0.135,0.002c-6.717-0.226-12.116-5.747-12.116-12.517v-38.866h134.884c4.466,0,8.085-3.62,8.085-8.085
				c0-4.465-3.619-8.085-8.085-8.085H159.821v-67.535c0-6.914,5.626-12.539,12.541-12.539h52.703h61.871H339.644z M233.149,223.136
				v-29.709h45.701v29.709H233.149z M286.985,177.256c-0.017,0-0.033-0.002-0.051-0.002h-61.871c-0.017,0-0.033,0.002-0.051,0.002
				h-40.648c-30.274,0-54.905-24.631-54.905-54.907c0-30.275,24.631-54.906,54.905-54.906h143.27
				c30.276,0,54.908,24.631,54.908,54.906c0,30.275-24.632,54.907-54.908,54.907H286.985z"/>
			<circle cx="187.253" cy="122.346" r="22.916"/>
			<circle cx="324.745" cy="122.346" r="22.916"/>
			<path d="M402.945,223.136c-4.466,0-8.085,3.62-8.085,8.085v154.107c0,4.465,3.619,8.085,8.085,8.085s8.085-3.62,8.085-8.085
				V231.221C411.03,226.756,407.41,223.136,402.945,223.136z"/>
			<path d="M109.055,223.136c-4.466,0-8.085,3.62-8.085,8.085v154.107c0,4.465,3.619,8.085,8.085,8.085
				c4.466,0,8.085-3.62,8.085-8.085V231.221C117.14,226.756,113.52,223.136,109.055,223.136z"/>
		</g>
	</g>
</g>
</svg>
