<svg width="32.000000" height="32.000000" viewBox="0 0 32 32" fill="none" xmlns="http://www.w3.org/2000/svg" xmlns:xlink="http://www.w3.org/1999/xlink">
	<desc>
			Created with Pixso.
	</desc>
	<defs/>
	<rect id="Прямоугольник 1" rx="5.000000" width="32.000000" height="32.000000" fill="#000000" fill-opacity="1.000000"/>
	<path id="path" d="M19.61 10.13L16.96 24.59C16.96 24.59 18.2 25.03 19.17 24.32C20.14 23.61 21.41 12.78 21.41 12.78C21.41 12.78 21.45 11.68 19.61 10.13Z" fill="#FFFFFF" fill-opacity="0.300000" fill-rule="nonzero"/>
	<path id="path" d="M9.1 22.16L10.77 11.37C10.82 11.09 10.91 10.82 11.06 10.58C11.21 10.33 11.4 10.12 11.63 9.96C11.67 9.93 11.71 9.9 11.75 9.88L16.47 6.88C16.59 6.8 16.73 6.74 16.87 6.71C17.02 6.68 17.16 6.68 17.31 6.7C17.45 6.73 17.59 6.77 17.72 6.85C17.84 6.92 17.96 7.01 18.05 7.12L19.33 8.64C19.47 8.33 19.56 8.01 19.61 7.68C19.74 6.84 19.6 6.03 19.22 5.37C18.85 4.75 18.31 4.36 17.68 4.26C16.36 4.05 15.07 5.25 14.81 6.93C14.8 7 14.77 7.06 14.73 7.11C14.7 7.17 14.65 7.21 14.6 7.25C14.54 7.29 14.48 7.31 14.42 7.33C14.36 7.34 14.29 7.35 14.23 7.34C14.16 7.33 14.1 7.3 14.04 7.27C13.99 7.24 13.94 7.2 13.9 7.14C13.86 7.09 13.83 7.03 13.81 6.97C13.79 6.91 13.79 6.84 13.79 6.78C14.15 4.53 15.97 2.95 17.85 3.24C18.78 3.39 19.59 3.96 20.11 4.85C20.62 5.71 20.8 6.77 20.64 7.84C20.55 8.43 20.35 8.98 20.05 9.5L21.65 11.41C21.85 11.65 21.99 11.92 22.08 12.22C22.16 12.52 22.18 12.83 22.13 13.13L20.46 23.93C20.4 24.26 20.29 24.58 20.11 24.87C19.93 25.17 19.7 25.41 19.43 25.61C19.15 25.82 18.84 25.96 18.51 26.04C18.18 26.12 17.84 26.14 17.5 26.08L11.25 25.11C11.08 25.09 10.92 25.04 10.76 24.99C10.6 24.93 10.45 24.85 10.3 24.77C10.16 24.68 10.02 24.58 9.9 24.46C9.77 24.34 9.66 24.22 9.56 24.08C9.46 23.94 9.38 23.8 9.31 23.64C9.23 23.49 9.18 23.33 9.14 23.17C9.1 23 9.08 22.83 9.07 22.66C9.06 22.49 9.07 22.32 9.1 22.16ZM11.41 24.09L17.67 25.06C17.87 25.09 18.08 25.08 18.28 25.03C18.48 24.98 18.66 24.9 18.83 24.78C18.99 24.66 19.13 24.51 19.24 24.33C19.34 24.16 19.41 23.97 19.44 23.76L21.12 12.97C21.14 12.81 21.13 12.65 21.09 12.49C21.05 12.34 20.97 12.2 20.87 12.07L19.42 10.34C19.36 10.41 19.3 10.47 19.23 10.52C19.13 10.61 19.04 10.69 18.94 10.77C18.23 11.29 17.41 11.5 16.59 11.37C16.53 11.36 16.46 11.34 16.41 11.31C16.35 11.27 16.3 11.22 16.26 11.17C16.22 11.11 16.19 11.05 16.17 10.99C16.15 10.92 16.15 10.85 16.16 10.78C16.17 10.72 16.2 10.65 16.23 10.59C16.27 10.54 16.31 10.49 16.37 10.45C16.42 10.41 16.48 10.38 16.55 10.36C16.62 10.34 16.68 10.34 16.75 10.35C17.38 10.45 18.01 10.24 18.55 9.75C18.62 9.69 18.69 9.62 18.76 9.55L17.27 7.79C17.24 7.75 17.21 7.73 17.16 7.72C17.11 7.71 17.07 7.72 17.03 7.75L12.31 10.74C12.29 10.76 12.26 10.77 12.24 10.79C11.99 10.97 11.84 11.22 11.79 11.53L10.11 22.31C10.1 22.41 10.09 22.52 10.1 22.62C10.1 22.72 10.12 22.82 10.14 22.92C10.16 23.02 10.2 23.11 10.24 23.21C10.28 23.3 10.34 23.39 10.4 23.47C10.46 23.55 10.52 23.63 10.6 23.7C10.67 23.76 10.75 23.83 10.84 23.88C10.93 23.93 11.02 23.98 11.12 24.01C11.21 24.05 11.31 24.07 11.41 24.09Z" fill="#FFFFFF" fill-opacity="1.000000" fill-rule="nonzero"/>
	<path id="path" d="M10.77 11.37C10.82 11.09 10.91 10.82 11.06 10.58C11.21 10.33 11.4 10.12 11.63 9.96C11.67 9.93 11.71 9.9 11.75 9.88L16.47 6.88C16.59 6.8 16.73 6.74 16.87 6.71C17.02 6.68 17.16 6.68 17.31 6.7C17.45 6.73 17.59 6.77 17.72 6.85C17.84 6.92 17.96 7.01 18.05 7.12L19.33 8.64C19.47 8.33 19.56 8.01 19.61 7.68C19.74 6.84 19.6 6.03 19.22 5.37C18.85 4.75 18.31 4.36 17.68 4.26C16.36 4.05 15.07 5.25 14.81 6.93C14.8 7 14.77 7.06 14.73 7.11C14.7 7.17 14.65 7.21 14.6 7.25C14.54 7.29 14.48 7.31 14.42 7.33C14.36 7.34 14.29 7.35 14.23 7.34C14.16 7.33 14.1 7.3 14.04 7.27C13.99 7.24 13.94 7.2 13.9 7.14C13.86 7.09 13.83 7.03 13.81 6.97C13.79 6.91 13.79 6.84 13.79 6.78C14.15 4.53 15.97 2.95 17.85 3.24C18.78 3.39 19.59 3.96 20.11 4.85C20.62 5.71 20.8 6.77 20.64 7.84C20.55 8.43 20.35 8.98 20.05 9.5L21.65 11.41C21.85 11.65 21.99 11.92 22.08 12.22C22.16 12.52 22.18 12.83 22.13 13.13L20.46 23.93C20.4 24.26 20.29 24.58 20.11 24.87C19.93 25.17 19.7 25.41 19.43 25.61C19.15 25.82 18.84 25.96 18.51 26.04C18.18 26.12 17.84 26.14 17.5 26.08L11.25 25.11C11.08 25.09 10.92 25.04 10.76 24.99C10.6 24.93 10.45 24.85 10.3 24.77C10.16 24.68 10.02 24.58 9.9 24.46C9.77 24.34 9.66 24.22 9.56 24.08C9.46 23.94 9.38 23.8 9.31 23.64C9.23 23.49 9.18 23.33 9.14 23.17C9.1 23 9.08 22.83 9.07 22.66C9.06 22.49 9.07 22.32 9.1 22.16L10.77 11.37ZM17.67 25.06C17.87 25.09 18.08 25.08 18.28 25.03C18.48 24.98 18.66 24.9 18.83 24.78C18.99 24.66 19.13 24.51 19.24 24.33C19.34 24.16 19.41 23.97 19.44 23.76L21.12 12.97C21.14 12.81 21.13 12.65 21.09 12.49C21.05 12.34 20.97 12.2 20.87 12.07L19.42 10.34C19.36 10.41 19.3 10.47 19.23 10.52C19.13 10.61 19.04 10.69 18.94 10.77C18.23 11.29 17.41 11.5 16.59 11.37C16.53 11.36 16.46 11.34 16.41 11.31C16.35 11.27 16.3 11.22 16.26 11.17C16.22 11.11 16.19 11.05 16.17 10.99C16.15 10.92 16.15 10.85 16.16 10.78C16.17 10.72 16.2 10.65 16.23 10.59C16.27 10.54 16.31 10.49 16.37 10.45C16.42 10.41 16.48 10.38 16.55 10.36C16.62 10.34 16.68 10.34 16.75 10.35C17.38 10.45 18.01 10.24 18.55 9.75C18.62 9.69 18.69 9.62 18.76 9.55L17.27 7.79C17.24 7.75 17.21 7.73 17.16 7.72C17.11 7.71 17.07 7.72 17.03 7.75L12.31 10.74C12.29 10.76 12.26 10.77 12.24 10.79C11.99 10.97 11.84 11.22 11.79 11.53L10.11 22.31C10.1 22.41 10.09 22.52 10.1 22.62C10.1 22.72 10.12 22.82 10.14 22.92C10.16 23.02 10.2 23.11 10.24 23.21C10.28 23.3 10.34 23.39 10.4 23.47C10.46 23.55 10.52 23.63 10.6 23.7C10.67 23.76 10.75 23.83 10.84 23.88C10.93 23.93 11.02 23.98 11.12 24.01C11.21 24.05 11.31 24.07 11.41 24.09L17.67 25.06Z" stroke="#FFFFFF" stroke-opacity="1.000000" stroke-width="0.500000"/>
</svg>
