<svg id="e9OwXTdPW2S1" xmlns="http://www.w3.org/2000/svg" xmlns:xlink="http://www.w3.org/1999/xlink" viewBox="0 0 1133 1000" shape-rendering="geometricPrecision" text-rendering="geometricPrecision" project-id="ba790b1b00ab401c9b96d44f4756e063" export-id="21e2dd92a40b4c918b6ef51eb252ff99" cached="false"><defs><linearGradient id="e9OwXTdPW2S11-fill" x1="0.5" y1="0" x2="0.5" y2="1" spreadMethod="pad" gradientUnits="objectBoundingBox" gradientTransform="translate(0 0)"><stop id="e9OwXTdPW2S11-fill-0" offset="0%" stop-color="rgba(255,255,255,0)"/><stop id="e9OwXTdPW2S11-fill-1" offset="100%" stop-color="#010022"/></linearGradient></defs><g transform="matrix(1.027292 0.033437-.030949 0.950849 875.357053 349.729524)"><path id="e9OwXTdPW2S3" d="M0.298329,17.054176L2.875424,0.403364c.061727-.44752.216044-.848744.44752-1.219105.231475-.385793.524678-.709859.879607-.972198.061727-.030863.108022-.077159.169749-.123454l7.283766-4.61408c.200612-.123454.401224-.216044.6327-.262339.216044-.046295.44752-.046295.663563-.015432.231476.030863.432088.108022.6327.216044.200613.123454.370361.262339.524679.432088l1.975258,2.345619c.200612-.478383.354929-.972197.432088-1.481444.200612-1.296263-.030863-2.546231-.617268-3.564724-.555542-.956766-1.404286-1.558603-2.361052-1.71292-2.052417-.324066-4.027675,1.527739-4.4289,4.120266-.030863.108022-.061727.200612-.123453.277771-.061727.09259-.123454.154317-.216044.216044-.077159.061727-.169749.09259-.262339.123454-.108022.015431-.200613.015431-.308635,0-.09259-.015432-.18518-.046296-.27777-.092591s-.154317-.123453-.231476-.200612c-.061727-.077158-.108022-.169749-.123454-.262339-.030863-.09259-.046295-.200612-.030863-.293202.555542-3.472135,3.348681-5.910344,6.265273-5.462825c1.435149.231476,2.669686,1.095651,3.487566,2.484505.771586,1.327127,1.064788,2.962888.802449,4.614081-.138885.91047-.432088,1.759214-.895039,2.561663L19.665122,0.46509c.308634.370361.524678.787017.648132,1.249969.138885.462951.154317.925902.09259,1.404285L17.813317,19.770157c-.077158.524678-.262339,1.018492-.524678,1.466012-.27777.447519-.6327.833312-1.064788,1.141946-.416656.308634-.895039.54011-1.404285.663564s-1.033924.138885-1.558602.061727L3.616146,21.60653c-.262339-.046295-.509246-.108022-.756153-.200612-.246908-.077159-.478383-.200612-.709859-.339498-.216044-.123454-.432088-.293202-.617268-.462951-.200612-.185181-.370361-.370361-.524678-.586405s-.293203-.432088-.401225-.678995c-.108022-.231476-.18518-.478383-.246907-.740722-.061727-.246907-.108022-.509246-.108022-.771585-.015432-.262339,0-.524679.046295-.771586Zm3.564725,2.97832l9.660249,1.496875c.308634.046296.617268.030864.925902-.046295s.601837-.200612.848744-.385792c.262339-.200613.478383-.416657.6327-.694427.169749-.277771.277771-.570973.324066-.879608L18.83181,2.872437c.046295-.246908.030864-.493815-.030863-.740722-.077159-.231476-.185181-.462951-.35493-.648132l-2.222166-2.669685c-.108021.09259-.200612.200612-.293202.27777-.154317.138886-.308634.262339-.462951.385793-1.095651.802449-2.34562,1.126515-3.61102.925903-.108022-.015432-.200612-.046296-.293202-.108022-.09259-.046296-.169749-.123454-.231476-.200613-.061727-.09259-.108022-.18518-.123454-.293202-.030863-.09259-.030863-.200612-.015431-.308634.015431-.09259.046295-.200612.108022-.293203.046295-.09259.123453-.154317.200612-.231475.09259-.061727.18518-.092591.293202-.123454.092591-.030863.200613-.030863.308635-.015432.956765.154317,1.944395-.169748,2.777707-.925902.108022-.09259.216044-.200612.308634-.308634L12.906034,-5.13662c-.046295-.046295-.108022-.077158-.169748-.09259-.077159-.015432-.138886,0-.200613.046295L5.236476,-0.568834c-.030864.030863-.061727.046295-.092591.061727-.401224.293202-.6327.678995-.709858,1.157378L1.856932,17.285652c-.015432.154317-.030864.308634-.030864.478383.015432.154317.030864.308634.077159.462951.030863.154317.077158.293202.154317.447519.061727.138886.138885.262339.231475.401225.092591.123454.200613.246907.324066.339497.108022.108022.231476.200613.370361.293203.138886.077158.277771.138885.416656.200612.154317.046295.308635.09259.462952.123454Z" transform="matrix(-.763962 3.312141-3.312141-.763962-25.96277-362.198407)" opacity="0" fill="#fff"/></g><g transform="translate(74.632778-322.456633)"><path id="e9OwXTdPW2S5" d="M2.08045,15.424735c0-5.153805,1.301735-8.873045,3.905203-11.15773s6.827463-3.427009,12.671984-3.427009c4.091165,0,7.385349,1.062643,9.882554,3.187924s6.559563,6.819045,7.411915,11.396815c.915334,4.290115,1.460368,11.905895-3.267619,13.215023-3.285517.938569-9.08942,0-10.041947-3.026014-.781402-2.631307-1.302447-5.870024.394918-11.033762c1.204461-3.197759,2.650772-4.164264,2.374111-5.356578-.765867-1.731294-1.103024-1.881286-5.155662-2.370732-.580813-.058736-1.292143-.104418-2.974167-.085153-.8892.000002-1.065412.039468-1.800937.33501-1.31126.892935-2.60401,1.701062-3.491906,3.856932s-.66775,2.953083-.776298,4.834671c-.134643,2.33393.933309,5.435556,1.590354,7.486374.637155,1.235648,1.692425,2.333239,2.746462,2.983158s6.163313,2.576902,9.244969,3.905203c3.134789,1.3283,5.764823,3.028524,7.890103,5.100672c2.178413,2.072148,3.267619,4.463089,3.267619,7.172821c0,5.3132-1.3283,9.271535-3.984901,11.875003-2.603468,2.603468-7.093123,3.905203-13.468964,3.905203-5.206937,0-9.298101-1.036075-12.273494-3.108223-2.975392-2.12528-5.020975-5.392898-6.136747-9.802855-1.331137-10.185054,6.203309-12.708975,13.070477-6.208436c3.183085,6.931858-.014562,4.968233,2.390938,10.905963c1.75094,2.804351,2.79494,3.676653,6.853131,3.604235c4.299904.069341,5.721642-.693536,7.891001-3.818053.737653-1.132504,1.104781-2.340302.932701-4.623252-.169434-2.247851-1.803257-4.827413-2.442594-5.441169-2.582878-3.068776-3.094342-3.503524-6.828018-5.728373-3.656949-2.045856-4.168411-2.557316-8.797162-6.304175s-5.711691-3.028524-7.890103-5.100672c-2.12528-2.072149-3.187921-4.463089-3.187921-7.172821Z" transform="matrix(3.31111 0 0 3.31111 809.053451 348.41834)" opacity="0" fill="#fff"/><path id="e9OwXTdPW2S6" d="M30.636396,38.748294c4.895701,2.038753,1.72343,12.369912.000003,19.434271h-30.132398C1.087439,35.751228,-0.941834,8.08912,2.973563,4.816781C17.503611,0.732191,20.141696,3.643932,15.10405,8.745236C-3.019278,25.7954,4.855738,54.277364,10.787916,53.320987c6.639677-.957083,16.106706-8.746361,19.84848-14.572693Z" transform="matrix(3.31111 0 0 3.31111 671.43337 348.63313)" opacity="0" fill="#fff"/><path id="e9OwXTdPW2S7" d="M63.542182,102.661111c-14.168076-3.218608-27.88002-14.93984-25.337826-24.320805c7.106629-13.93117,16.764456-38.517144,16.313395-50.887525-4.02001-10.112395-16.144928-6.875013-23.602358-.000001-6.136475,41.311242-13.454701,108.186426-8.330245,134.275886c22.379985,6.842307,39.813963-4.34032,47.204717-13.626715c23.031961-14.791511,33.973029,20.822562,44.171279,42.698044h-113.457143v-190c43.093816-2.437274,79.610917-1.115817,98.3964,7.916677-7.774899,23.635198-20.620977,50.514463-44.38265,64.124996c11.013086-2.099631,26.058883,5.591099,32.973882,12.138887-1.08593,9.795745-12.409472,19.287207-23.949451,17.680556Z" transform="translate(511.495999 350.48201)" opacity="0" fill="#fff"/><path id="e9OwXTdPW2S8" d="M13.620178,58.182565h-13.116177C-1.933086,33.263467,0.596665,6.808481,8.295239,3.260206c2.685062-1.075731,2.460995-1.607663,9.682086-1.53218c3.346365.704496,5.246207.210502,8.841008,3.088753c3.6616,2.623203,5.48507,6.33941,5.492399,11.148613.008363,5.487585-12.298001,11.360507-11.754059,13.239595-.317643,1.171034,14.869152,6.051876,14.869152,12.992434c0,4.918506-1.803475,8.825985-5.410424,11.722439-3.606949,2.841803-9.072023,4.262705-16.395223,4.262705Zm-1.349076-7.039443c2.608102-.249721,2.85977-.230993,4.991149-.613544c2.131379-.4372,2.317652-.432037,4.230428-1.361088c1.967426-.983701,3.615632-2.041249,4.708647-3.899351s1.980377-2.882645.478217-4.966148c-1.676523-2.325345-2.008805-2.959868-5.031005-3.369788-5.167954-.343482-8.343951,1.473621-11.316662-.124757s3.013591-8.214472,8.544212-11.330919c4.919738-2.643408,5.584463-5.165863,5.314334-8.555399-.178946-2.245384-1.57875-4.869394-3.766412-5.717121-1.777474-.546907-4.940682-.166691-7.198071,2.569095-.960325,1.140604-17.835867,26.468428-7.128247,35.218729.986412,1.003822,4.023122,2.080922,6.17341,2.150291Z" transform="matrix(3.31111 0 0 3.31111 356.375454 348.633132)" opacity="0" fill="#fff"/><path id="e9OwXTdPW2S9" d="M11.639062,48.877213c3.528851,2.095579,11.149379,3.524569,16.043998,1.519745c3.09347-2.555413,4.515535-8.35602,1.418862-11.973022C17.888706,29.167935,6.334954,42.307972,3.34744,58.086567h-2.61944L21.601665,0.703997c8.860409,13.422544,20.085181,41.588535,20.873664,57.38257h-33.643436c-1.540013-2.600017-1.074626-7.204694,2.807169-9.209354Z" transform="matrix(3.31111 0 0 3.31111 187.090995 348.95099)" opacity="0" fill="#fff"/><path id="e9OwXTdPW2S10" d="M35.627795,45.457907c4.995779,2.396643,4.697904,14.832123,5.821137,23.908427h-40.944931C-0.564185,50.467845,-0.157738,16.146015,2.16742,0.799995c3.990848-6.328962,24.637033-6.37159,20.817536-.000002C9.200304,22.108761,7.13411,56.598271,12.506042,58.199815c6.850361,1.920524,14.746384-15.117242,23.121753-12.741908Z" transform="matrix(2.771039 0 0 2.771039 63.846685 349.065186)" opacity="0" fill="#fff"/></g><rect id="e9OwXTdPW2S11" style="mix-blend-mode:multiply" width="1133" height="500" rx="0" ry="0" transform="matrix(1 0 0 1 0 500)" opacity="0.8" fill="url(#e9OwXTdPW2S11-fill)" stroke-width="0"/><g id="e9OwXTdPW2S12" transform="matrix(2.857143 0 0 2.857143 647.285714 800)"><path id="e9OwXTdPW2S13" d="M100.296,3.59097h1.86105v8.05706h-1.86105v-8.05706Zm.93793-1.32776c-.33752,0-.62035-.10561-.84864-.31684-.22829-.22129-.34251-.49288-.34251-.81477s.11422-.58843.34251-.79967c.22829-.22129.51112-.33193.84864-.33193s.62035.10562.84864.31685c.22829.20117.34251.45766.34251.76949c0,.33195-.11422.61358-.34251.84494-.21832.22129-.5013.33193-.84864.33193Zm17.50762,4.76743v4.61696h-1.86105v-4.37556c0-.70411-.16378-1.23218-.49133-1.58425-.32755-.3621-.7941-.54316-1.39949-.54316-.68501,0-1.2259.21123-1.62294.63369-.39705.41241-.59557,1.0109-.59557,1.7955v4.07379h-1.86105v-11.19538h1.86105v4.07379c.30776-.33195.68486-.58341,1.13162-.75441.45658-.18106.96271-.27159,1.51855-.27159c1.00259,0,1.80651.29673,2.41206.8902.60539.59346.90817,1.4736.90817,2.64042h-.00002ZM107.5923,11.7549c-.87342,0-1.54846-.23136-2.02483-.69407-.47652-.46269-.71478-1.13663-.71478-2.02181v-3.87763h-1.3102v-1.50882h1.3102v-1.84075h1.8612v1.84075h2.12908v1.50882h-2.12908v3.83237c0,.39231.09428.69407.28283.9053.18855.20117.46156.30176.81888.30176.41684,0,.76433-.11065,1.04218-.33195l.52109,1.34285c-.21832.18106-.48634.31685-.80392.40738-.30776.09053-.63531.13579-.98265.13579v.00001Zm-13.2957-.10591L92.24186,6.09656L90.1575,11.64899h-1.78672L85.45259,3.59193h1.75696l2.09931,5.94472l2.18861-5.94472h1.56327l2.14403,5.97489l2.15884-5.97489h1.65271l-2.93315,8.05706h-1.78657ZM80.71172,7.66404c0,.13076-.00982.31685-.02976.55826h-6.23841c.10923.59347.39221,1.06623.84879,1.41829.4664.34199,1.04218.51299,1.72704.51299.87342,0,1.59303-.2917,2.15884-.87511l.99761,1.16179c-.35731.43252-.80906.75943-1.35492.98072s-1.16138.33195-1.84625.33195c-.87342,0-1.64274-.17603-2.30766-.52808-.66507-.35206-1.18118-.83991-1.54846-1.46355-.35731-.63369-.53605-1.34787-.53605-2.14251c0-.78458.17375-1.48869.52109-2.11234.35731-.63371.84864-1.12657,1.47398-1.47863s1.33015-.52808,2.11427-.52808c.77415,0,1.464.17603,2.06955.52808.61537.34199,1.09189.82985,1.42926,1.46354.34749.62364.52109,1.34788.52109,2.1727l-.00001-.00002ZM76.69183,5.00853c-.59557,0-1.1017.18106-1.5187.54318-.40687.35206-.6551.82481-.74439,1.41829h4.51122c-.07932-.58341-.32256-1.05617-.72943-1.41829-.40702-.36212-.9133-.54318-1.5187-.54318ZM69.01645,11.6476v-1.04108c-.30776.38223-.68985.66889-1.14643.86002-.44676.19112-.94291.28668-1.48893.28668-.76433,0-1.45403-.17101-2.06955-.51301-.60539-.34199-1.08191-.82481-1.42925-1.44846-.34749-.63369-.52109-1.35793-.52109-2.17268s.17359-1.53397.52109-2.1576c.34734-.62364.82386-1.10646,1.42925-1.44846C64.92706,3.671,65.61676,3.5,66.38109,3.5c.52607,0,1.00743.09053,1.44421.27159s.8089.45265,1.11666.81477v-4.13414h1.86105v11.19538h-1.78656Zm-.35731-2.70078c.20834-.38223.31259-.82481.31259-1.32774s-.10425-.94553-.31259-1.32776c-.2085-.38223-.49133-.67394-.84864-.87511-.35746-.21125-.75935-.31685-1.2061-.31685-.4466,0-.84864.10561-1.20595.31685-.35731.20117-.64014.49288-.84864.87511s-.31259.82481-.31259,1.32776.1041.94551.31259,1.32774.49132.67897.84864.8902c.35731.20118.75935.30176,1.20595.30176.44676,0,.84864-.10058,1.2061-.30176.35731-.21123.64014-.50796.84864-.8902ZM56.93698,3.49973c1.1712,0,2.06456.28667,2.67993.86002.62534.56329.93793,1.41829.93793,2.56499v4.72257h-1.75681v-.98072c-.22829.35206-.55584.62363-.98265.81475-.41699.18106-.92312.27159-1.5187.27159s-1.11666-.10059-1.56327-.30176c-.44671-.21125-.79411-.49791-1.04225-.86003-.23823-.37217-.35733-.78961-.35733-1.25231c0-.72424.26304-1.30262.7891-1.73514.536-.44259,1.37467-.66388,2.51626-.66388h2.05459v-.1207c0-.56329-.16876-.99581-.50628-1.29757-.32755-.30178-.81888-.45265-1.47398-.45265-.4466,0-.88837.0704-1.32501.21123-.42681.14083-.78911.33696-1.08691.58844l-.72956-1.37302c.41689-.32189.91812-.56832,1.50373-.73932s1.20595-.2565,1.8612-.2565l.00001.00001Zm-.25322,6.88017c.46655,0,.8784-.10562,1.23587-.31685.36714-.22129.62519-.53312.77415-.93545v-.93547h-1.92073c-1.07194,0-1.60784.35709-1.60784,1.07126c0,.34199.13386.61357.40188.81475s.6403.30176,1.11666.30176h.00001Zm-10.69116.06065h-.86354l-3.42441-5.7033v6.91036h-1.8462v-10.56169h1.59309l4.13907,7.00089l4.06463-7.00089h1.59309l.01488,10.56169h-1.8313l-.0149-7.00089-3.42441,5.79383Zm63.34121,18.8993v15.15h-3.372v-1.962c-.57764.71189-1.32435,1.2678-2.172,1.617-.90563.36793-1.87555.55151-2.853.54-1.37977.02378-2.74245-.30785-3.957-.963-1.13745-.62625-2.07375-1.56255-2.7-2.7-1.30391-2.56373-1.30391-5.59627,0-8.16.6281-1.13606,1.56394-2.0719,2.7-2.7c1.21546-.65275,2.57751-.98423,3.957-.963.92501-.00857,1.84259.16578,2.7.513.8172.33509,1.54983.84741,2.145,1.5v-.762c0-.28643.11378-.56114.31633-.76367s.47724-.31633.76367-.31633l2.472-.03Zm-4.767,11.01c1.70241-1.9736,1.70241-4.8964,0-6.87-1.79985-1.74394-4.65915-1.74394-6.459,0-1.68467,1.98016-1.68467,4.88984,0,6.87.84101.87157,2.01145,1.34672,3.222,1.308c1.21374.03854,2.38799-.43377,3.237-1.302v-.006Zm17.94,3.324c-.4506.35546-.96927.61479-1.524.762-.61408.17233-1.2492.25816-1.887.255-1.41013.09088-2.79902-.37927-3.864-1.308-.9622-1.0234-1.45181-2.403-1.35-3.804v-13.59h2.469c.28643,0,.56114.11378.76367.31633s.31633.47724.31633.76367v2.379h4.047v2.853h-4.047v7.2c-.04376.61441.15433,1.2216.552,1.692.40613.41048.96838.62774,1.545.597.22613.00135.45196-.01672.675-.054.80958-.16952,1.6251.26156,1.941,1.026l.363.912Zm5.079.027c-1.20043-.63362-2.19844-1.59212-2.88-2.766-1.3796-2.49392-1.3796-5.52208,0-8.016.68541-1.16705,1.68279-2.11975,2.88-2.751c2.61457-1.32565,5.70443-1.32565,8.319,0c1.19702.63151,2.19433,1.58416,2.88,2.751c1.3796,2.49392,1.3796,5.52208,0,8.016-.68182,1.17368-1.67976,2.13211-2.88,2.766-2.61457,1.32565-5.70443,1.32565-8.319,0Zm7.392-3.369c1.70241-1.9736,1.70241-4.8964,0-6.87-1.79985-1.74394-4.65915-1.74394-6.459,0-1.68467,1.98016-1.68467,4.88984,0,6.87.84101.87157,2.01145,1.34672,3.222,1.308c1.21059.04404,2.38438-.42048,3.237-1.281v-.027Zm17.022-11.16v3.372c-.27077-.05406-.54592-.08318-.822-.087-1.19439-.06706-2.36247.36798-3.222,1.2-.83467.95959-1.25439,2.2112-1.167,3.48v7.353h-3.552v-15.15h2.298c.28643,0,.56113.11379.76367.31633s.31633.47724.31633.76367v1.134c1.014-1.588,2.809-2.382,5.385-2.382Zm-107.022,15.042c-.99952-.24447-1.95011-.65737-2.811-1.221l.621-1.233c.3744-.7399,1.2508-1.07278,2.022-.768.37389.15524.75654.28847,1.146.399.91807.26884,1.86939.4072,2.826.411c2.118,0,3.179-.557,3.183-1.671.01432-.51063-.31898-.96614-.81-1.107-.84397-.28199-1.7129-.4829-2.595-.6-1.03337-.14877-2.05419-.3744-3.054-.675-.77526-.24876-1.47221-.69547-2.022-1.296-.61143-.71083-.9214-1.63215-.864-2.568-.02956-1.38298.6493-2.68527,1.8-3.453c1.44674-.93234,3.1502-1.38576,4.869-1.296c1.05397.00022,2.10457.11896,3.132.354.90209.18897,1.76874.51902,2.568.978l-.675,1.296c-.363.73034-1.21602,1.07232-1.983.795-.9848-.3605-2.02631-.54137-3.075-.534-.81824-.04818-1.63519.11397-2.373.471-.48302.22293-.79719.70118-.81,1.233-.01041.54748.34149,1.03623.864,1.2.87464.31646,1.77934.54264,2.7.675c1.00825.15143,2.00395.37704,2.979.675.77042.2345,1.46702.66444,2.022,1.248.59601.69214.89656,1.59055.837,2.502.02092,1.37985-.67962,2.67062-1.848,3.405-1.50499.92728-3.25673,1.37412-5.022,1.281-1.22607-.00259-2.44614-.17112-3.627-.501Zm44.883-14.874v12.858c0,5.336-2.724,8.004-8.172,8.004-1.40084.00811-2.79608-.17765-4.146-.552-1.17835-.30549-2.28055-.85199-3.237-1.605l1.026-1.713c.30567-.49262.95204-.6455,1.446-.342.51805.29338,1.06493.53264,1.632.714.99571.32459,2.03673.48864,3.084.486c1.664,0,2.884-.378,3.66-1.134.84612-.94702,1.26781-2.19906,1.167-3.465v-.795c-.61114.66419-1.36796,1.17763-2.211,1.5-.91436.34924-1.88627.52327-2.865.513-1.35633.0185-2.69615-.29893-3.9-.924-1.14224-.59206-2.09694-1.49066-2.757-2.595-.68212-1.15978-1.02996-2.48573-1.005-3.831-.02691-1.34077.32116-2.66242,1.005-3.816.65985-1.09557,1.61266-1.98501,2.751-2.568c1.20751-.61258,2.54617-.9215,3.9-.9c1.02537-.01399,2.04386.16934,3,.54.88145.34534,1.65934.91145,2.259,1.644v-.936c0-.28643.11379-.56114.31633-.76367s.47724-.31633.76367-.31633l2.283-.003Zm-4.782,10.263c.86632-.80774,1.34014-1.95125,1.299-3.135.03647-1.17094-.43625-2.30022-1.296-3.096-1.9293-1.58787-4.7127-1.58787-6.642,0-.85642.7974-1.32577,1.92647-1.287,3.096-.04421,1.18189.4251,2.3251,1.287,3.135c1.92186,1.60535,4.71714,1.60535,6.639,0Zm-12.057-10.278l-5.892,13.743c-.36888.86087-1.21443,1.41985-2.151,1.422h-1.902l5.763-13.404.3-.675c.28294-.65223.92704-1.07338,1.638-1.071l2.244-.015Zm-10.785,13.263l-5.889-13.236h2.511c.71819-.00121,1.36666.42953,1.644,1.092l3.492,8.046-1.758,4.098Z" opacity="0.7" clip-rule="evenodd" fill="#fff" fill-rule="evenodd"/><g id="e9OwXTdPW2S14" transform="matrix(.3 0 0 0.3-18.12243-25.905895)" opacity="0.7" mask="url(#e9OwXTdPW2S16)"><path id="e9OwXTdPW2S15" d="M129.5,243.58426c-8.76,2.18-20.08,1.79-37.33-19.63-2.35828-2.9281-4.38181-6.36293-5.93416-10.02849c3.00814.97918,6.21933,1.50849,9.55416,1.50849c17.03246,0,30.84-13.80754,30.84-30.84c0-5.42003-1.39819-10.5135-3.85355-14.93939c22.54068-3.14789,48.24701-1.18662,56.01355,6.19939c12.32,11.73-14.11,59.03-49.29,67.73Z" fill="#fff"/><mask id="e9OwXTdPW2S16" mask-type="alpha" x="-150%" y="-150%" height="400%" width="400%"><path id="e9OwXTdPW2S17" d="M78.37454,207.03926c0-31.45994,25.50332-56.96327,56.96327-56.96327s56.96327,25.50332,56.96327,56.96327-25.50332,56.96327-56.96327,56.96327-56.96327-25.50332-56.96327-56.96327Zm89.23546-4.715c-.16775-.93858-1.05962-1.56734-2-1.41h-.06c-4.15414.71597-8.30501-1.28258-10.33588-4.97651s-1.49439-8.26953,1.33588-11.39349c.33036-.3301.51598-.77798.51598-1.245s-.18561-.9149-.51598-1.245l-.11-.1c-2.70671-2.31865-5.78705-4.16144-9.11-5.45-.43613-.17299-.92328-.16468-1.35326.02308s-.76719.53944-.93674.97692v.06c-1.40364,3.98681-5.18789,6.63916-9.41438,6.59848s-7.95898-2.76539-9.28562-6.77848c-.13404-.44903-.44162-.82607-.85458-1.04757s-.8972-.26916-1.34542-.13243h-.11c-3.26392,1.21388-6.31249,2.94242-9.03,5.12-.37331.28196-.619.70095-.6828,1.16441s.05956.93325.3428,1.30559l.1.12c2.68294,3.2243,3.03751,7.79124.8844,11.39101s-6.34454,5.44763-10.4544,4.60899c-.45624-.10445-.9353-.02286-1.33126.22672s-.67619.6466-.77874,1.10328v.09c-.55386,3.43784-.55386,6.94217,0,10.38.06433.46505.31181.88512.68739,1.16681s.84815.40164,1.31261.33319h.11c4.15414-.71597,8.30501,1.28258,10.33588,4.97651s1.49439,8.26953-1.33588,11.39349c-.33036.3301-.51598.77798-.51598,1.245s.18561.9149.51598,1.245l.11.1c2.70914,2.30768,5.7893,4.14023,9.11,5.42.43613.17299.92328.16468,1.35326-.02308s.76719-.53944.93674-.97692v-.06c1.40815-3.97311,5.18194-6.61524,9.39704-6.57914s7.94308,2.7425,9.28296,6.73914c.13404.44903.44162.82607.85458,1.04757s.8972.26916,1.34542.13243h.11c3.30375-1.22537,6.38706-2.97809,9.13-5.19.37164-.28659.61343-.70974.67164-1.17542s-.07198-.93533-.36164-1.30458l-.1-.12c-2.83001-3.19588-3.28744-7.84789-1.13412-11.53378s6.43037-5.57199,10.60412-4.67622c.93041.23341,1.87421-.33019,2.11-1.26v-.09c.5347-3.37898.5347-6.82102,0-10.2Zm-41.67,4.69c0-5.197,4.213-9.41,9.41-9.41s9.41,4.213,9.41,9.41-4.213,9.41-9.41,9.41-9.41-4.213-9.41-9.41Z" fill="#d2dbed" stroke-width="0"/></mask></g><path id="e9OwXTdPW2S18" d="M116.33,114.77l-3.64-2.18c-1.023263-.593162-1.652267-1.687247-1.65-2.87v-2c-.002267-1.182753.626737-2.276838,1.65-2.87l3.64-2.18c.762973-.435835,1.321342-1.157154,1.552062-2.005003s.114855-1.752643-.322062-2.514997v0l-1.74-3c-.935215-1.566004-2.961067-2.080293-4.53-1.15v0l-3.68,2.18c-1.024118.591275-2.285882.591275-3.31,0l-1.7-1c-1.023263-.593162-1.652267-1.687247-1.65-2.87v-4.38c0-.877867-.348731-1.719778-.969477-2.340523s-1.462656-.969477-2.340523-.969477h-3.47c-.877867,0-1.719778.348731-2.340523.969477s-.969477,1.462656-.969477,2.340523s0,.06,0,.09v4.35c.002267,1.182753-.626737,2.276838-1.65,2.87l-1.68,1c-1.024118.591275-2.285882.591275-3.31,0L80.56,94c-.767143-.448916-1.682599-.570435-2.540292-.337203s-1.585543.801616-2.019708,1.577203v0l-1.74,3c-.443418.7584-.567152,1.661967-.343945,2.511654s.775044,1.575787,1.533945,2.018346v0L79.1,105c1.023263.593162,1.652267,1.687247,1.65,2.87v2c.002267,1.182753-.626737,2.276838-1.65,2.87l-3.61,2.18c-1.578036.917936-2.114924,2.940216-1.2,4.52v0l1.74,3c.917936,1.578036,2.940216,2.114924,4.52,1.2v0l3.66-2.18c1.024118-.591275,2.285882-.591275,3.31,0l1.68,1c1.023263.593162,1.652267,1.687247,1.65,2.87v3.67c0,.877867.348731,1.719778.969477,2.340523s1.462656.969477,2.340523.969477h3.46c.877867,0,1.719778-.348731,2.340523-.969477s.969477-1.462656.969477-2.340523v0-3.77c-.002267-1.182753.626737-2.276838,1.65-2.87l1.7-1c1.024118-.591275,2.285882-.591275,3.31,0l3.66,2.18c1.5824.913239,3.605483.371662,4.52-1.21v0l1.74-3c.938839-1.568495.428452-3.601089-1.14-4.54Zm-20.49.91c-3.865993,0-7-3.134007-7-7s3.134007-7,7-7s7,3.134007,7,7v0c0,3.865993-3.134007,7-7,7v0Z" transform="matrix(.3 0 0 0.3-17.650844-2.6395)" opacity="0.7" fill="#fff"/></g>
</svg>
